# xmcd
#
# Track frame offsets:
#	150
#	15892
#	28080
#	41020
#	56175
#	65572
#	80935
#	93315
#	106565
#	119792
#
# Disc length: 1740 seconds
#
# Revision: 1
# Processed by: cddbd v1.4PL0 Copyright (c) Steve Scherf et al.
# Submitted via: audiograbber 1.81.03
#
DISCID=8306ca0a
DTITLE=Andre Clavier - Les Belles Annees
DYEAR=1900
DGENRE=
TTITLE0=On n'a pas le droit
TTITLE1=Je me sens tres seul
TTITLE2=J'avais 20 ans
TTITLE3=N'oublie jamais
TTITLE4=Bonsoir Lily
TTITLE5=Rossignol de nos amours
TTITLE6=Loulou
TTITLE7=Ce soir ma Ninon
TTITLE8=Partons la mer est belle
TTITLE9=On l'appelle Brin d'amour
EXTD=
EXTT0=
EXTT1=
EXTT2=
EXTT3=
EXTT4=
EXTT5=
EXTT6=
EXTT7=
EXTT8=
EXTT9=
PLAYORDER=
